<svg fill="none" height="722" viewBox="0 0 820 722" width="820" xmlns="http://www.w3.org/2000/svg"><g fill="#e4e6e7"><path d="m420.403 264.621c.561 9.384-6.298 17.646-15.62 18.831-9.353 1.091-17.989-5.362-19.673-14.622l-.28-1.59-1.559.374c-6.017 1.497-11.785 3.274-17.178 5.238l-1.497.53.624 1.465c3.741 8.636.124 18.769-8.262 23.04-8.387 4.24-18.706 1.185-23.476-6.984l-.811-1.371-1.31.872c-4.77 3.181-9.602 6.797-14.341 10.756l-1.247 1.029 1.091 1.154c6.516 6.859 6.547 17.615.125 24.474-6.422 6.827-17.178 7.482-24.443 1.496l-1.216-.998-.935 1.279c-3.398 4.614-6.609 9.509-9.789 14.996l-.811 1.372 1.434.717c8.418 4.24 12.159 14.31 8.48 22.946-3.71 8.667-13.593 12.938-22.541 9.758l-1.496-.53-.437 1.559c-1.746 6.267-3.086 11.972-4.053 17.428l-.28 1.559 1.559.187c9.415 1.091 16.367 9.322 15.869 18.675-.53 9.353-8.325 16.773-17.74 16.866l-1.59.032.094 1.559c.374 6.141 1.06 12.127 2.088 17.739l.281 1.559 1.528-.374c9.228-2.182 18.55 3.18 21.231 12.19 2.712 9.01-2.089 18.613-10.943 21.886l-1.497.53.624 1.465c2.182 5.113 4.926 10.476 8.075 15.994l.779 1.372 1.341-.873c7.919-5.238 18.519-3.398 24.193 4.178 5.643 7.513 4.365 18.207-2.868 24.318l-1.247 1.06 7.576 7.451 7.888 6.984.966-1.31c5.674-7.607 16.274-9.509 24.131-4.365 7.888 5.113 10.382 15.589 5.674 23.82l-.779 1.371 1.434.717c5.393 2.682 10.943 5.051 16.492 7.078l1.497.561.436-1.528c2.65-9.104 11.972-14.528 21.169-12.346 9.166 2.12 15.09 11.099 13.469 20.421l-.281 1.59 1.59.156c6.236.623 12.097.935 17.896.904h1.59l-.094-1.59c-.592-9.416 6.298-17.646 15.651-18.769 9.353-1.153 17.989 5.238 19.673 14.529l.28 1.559 1.528-.343c6.017-1.403 11.816-3.118 17.21-5.144l1.496-.562-.623-1.465c-3.773-8.698-.125-18.831 8.324-23.071 8.355-4.24 18.643-1.185 23.414 6.984l.81 1.372 1.31-.905c5.05-3.398 9.851-7.014 14.31-10.756l1.216-1.028-1.092-1.154c-6.453-6.89-6.484-17.646-.062-24.505 6.391-6.828 17.116-7.482 24.412-1.496l1.216.997.935-1.247c3.398-4.552 6.609-9.446 9.821-14.996l.779-1.372-1.434-.717c-8.418-4.24-12.128-14.31-8.418-22.946 3.648-8.636 13.5-12.938 22.416-9.758l1.497.53.436-1.528c1.684-5.924 3.087-11.785 4.084-17.428l.281-1.559-1.59-.187c-9.415-1.122-16.337-9.353-15.807-18.706.499-9.384 8.262-16.773 17.709-16.867h1.59l-.094-1.59c-.436-6.64-1.122-12.47-2.057-17.77l-.281-1.559-1.528.374c-9.197 2.151-18.55-3.18-21.294-12.159-2.743-9.01 2.058-18.644 10.944-21.917l1.496-.562-.624-1.465c-2.307-5.331-5.05-10.725-8.137-16.025l-.81-1.372-1.341.904c-7.856 5.269-18.457 3.461-24.131-4.115-5.612-7.513-4.365-18.207 2.806-24.318l1.247-1.06-7.513-7.451-7.919-6.984-.936 1.341c-5.611 7.576-16.212 9.478-24.068 4.333-7.888-5.144-10.382-15.619-5.737-23.85l.78-1.372-1.434-.717c-5.519-2.712-11.037-5.081-16.399-7.046l-1.497-.561-.468 1.528c-2.712 9.103-12.034 14.559-21.2 12.377-9.135-2.151-15.058-11.13-13.468-20.452l.28-1.559-1.59-.156c-5.892-.623-11.753-.935-17.926-.935h-1.59zm-15.277 21.824c10.351-1.309 18.051-10.07 18.238-20.327 5.02.031 9.852.311 14.654.779-.063.624-.156 1.247-.156 1.871 0 9.54 6.516 18.113 16.056 20.327 10.163 2.401 20.296-3.305 24.037-12.938 4.49 1.683 9.041 3.647 13.624 5.861-1.309 2.837-2.088 5.799-2.088 8.792 0 6.859 3.336 13.531 9.415 17.521 8.761 5.706 20.234 3.866 26.999-3.866 1.465 1.31 5.518 4.864 5.518 4.864s3.492 3.46 5.269 5.206c-4.053 4.022-6.266 9.353-6.266 14.809 0 4.334 1.34 8.699 4.115 12.409 6.298 8.386 17.677 10.538 26.688 5.518 2.525 4.427 4.77 8.885 6.765 13.344-7.482 3.46-12.221 10.787-12.221 18.737 0 1.995.28 4.022.904 6.017 3.024 9.946 13.032 15.963 23.227 14.404.748 4.458 1.309 9.291 1.683 14.653-10.257.873-18.519 9.104-19.049 19.517-.031.405-.031.81-.031 1.184 0 9.884 7.108 18.364 16.835 20.297-.873 4.707-2.026 9.54-3.367 14.435-9.945-2.682-20.483 2.12-24.567 11.691-1.123 2.65-1.653 5.393-1.653 8.137 0 7.14 3.804 13.905 10.164 17.74-2.681 4.551-5.362 8.667-8.168 12.502-8.449-5.893-20.016-5.02-27.093 2.556-3.741 3.991-5.612 9.104-5.612 14.248 0 4.645 1.621 9.228 4.677 13.063-3.741 3.055-7.67 6.048-11.816 8.854-5.893-8.449-17.085-11.535-26.345-6.827-7.233 3.616-11.442 10.974-11.442 18.612 0 2.245.468 4.49 1.216 6.734-4.52 1.621-9.29 3.056-14.248 4.24-2.65-9.945-12.034-16.679-22.416-15.401-10.382 1.247-18.113 10.008-18.269 20.327-4.739-.031-9.572-.311-14.591-.779.062-.624.156-1.278.156-1.902 0-9.54-6.516-18.082-16.056-20.296-10.195-2.432-20.328 3.242-24.007 12.907-4.583-1.715-9.197-3.679-13.686-5.861 1.34-2.868 2.151-5.861 2.151-8.854 0-6.828-3.336-13.469-9.384-17.428-8.73-5.706-20.234-3.866-27.031 3.897-1.496-1.31-5.518-4.895-5.518-4.895s-3.523-3.46-5.3-5.238c4.084-4.053 6.298-9.384 6.298-14.84 0-4.333-1.341-8.698-4.116-12.377-6.266-8.386-17.708-10.569-26.749-5.549-2.588-4.583-4.833-9.011-6.703-13.282 7.482-3.46 12.252-10.818 12.252-18.799 0-1.965-.28-3.991-.873-5.955-2.993-9.977-12.938-15.994-23.133-14.435-.779-4.677-1.372-9.571-1.715-14.591 10.226-.935 18.457-9.166 19.049-19.517.032-.374.031-.748.031-1.153 0-9.914-7.17-18.426-16.929-20.359.842-4.551 1.965-9.321 3.368-14.466 9.976 2.713 20.576-2.057 24.692-11.66 1.122-2.619 1.652-5.362 1.652-8.075 0-7.17-3.835-13.936-10.195-17.802 2.65-4.489 5.363-8.605 8.169-12.502 8.417 5.862 19.984 5.02 27.123-2.556 3.742-3.991 5.612-9.104 5.612-14.217 0-4.645-1.621-9.259-4.707-13.063 3.928-3.211 7.887-6.173 11.816-8.854 5.892 8.418 17.084 11.504 26.375 6.797 7.171-3.679 11.38-11.006 11.38-18.644 0-2.245-.468-4.49-1.216-6.703 4.52-1.59 9.291-3.056 14.248-4.334 2.525 9.883 11.909 16.68 22.26 15.495z"/><path d="m354.615 335.079-1.154.967 11.099 13.125 1.153-.966c16.555-13.999 37.631-20.671 59.361-18.831l1.497.124 1.465-17.116-1.496-.124c-26.251-2.245-51.785 5.861-71.925 22.821zm70.179-19.891c-.187 2.183-.78 9.135-.967 11.162-21.481-1.466-42.244 5.175-58.831 18.737-1.247-1.497-5.736-6.828-7.233-8.543 18.956-15.494 42.588-23.07 67.031-21.356z"/><path d="m498.91 368.813.967 1.153c14.029 16.618 20.732 37.724 18.893 59.392l-.125 1.497 17.116 1.465.125-1.496c2.245-26.283-5.861-51.816-22.822-71.957l-.966-1.153zm12.689-6.766c14.03 17.179 21.637 38.223 21.637 60.203 0 2.276-.125 4.521-.281 6.828-2.182-.187-9.103-.78-11.13-.967.125-1.933.25-3.897.25-5.83 0-19.361-6.703-37.88-19.018-53.032 1.465-1.247 6.796-5.736 8.542-7.202z"/><path d="m478.209 504.123c-16.711 14.06-37.817 20.763-59.423 18.862l-1.497-.125-1.496 17.147 1.496.125c26.283 2.214 51.816-5.924 71.957-22.884l1.153-.966-11.036-13.126zm.686 3.18c1.247 1.496 5.799 6.89 7.233 8.573-18.956 15.495-42.65 23.009-67.093 21.357.187-2.183.78-9.135.967-11.162 21.387 1.466 42.151-5.175 58.893-18.768z"/><path d="m419.343 348.239c-20.795.686-40.063 9.415-54.31 24.629-14.092 15.028-21.076 34.233-21.076 53.344 0 20.826 8.262 41.559 24.599 56.867 31.364 29.399 80.841 27.778 110.272-3.586 14.217-15.183 21.668-35.011 20.982-55.838-.686-20.826-9.415-40.124-24.63-54.372-15.151-14.248-34.98-21.73-55.837-21.044zm-48.699 132.657c-30.148-28.246-31.675-75.791-3.398-106.001 13.687-14.622 32.206-23.009 52.221-23.663 20.016-.655 39.096 6.547 53.718 20.233 14.622 13.687 23.04 32.237 23.695 52.284.654 20.016-6.516 39.096-20.172 53.687-28.34 30.179-75.916 31.706-106.064 3.46z"/><path d="m308.009 421.536c-2.276 26.188 5.83 51.753 22.79 71.925l.967 1.153 1.153-.935 12.035-10.133-.967-1.153c-14.061-16.617-20.764-37.724-18.862-59.423l.125-1.497-17.147-1.434zm2.619 8.667c0-2.276.125-4.583.312-6.89 2.182.187 9.134.748 11.161.935-.125 1.995-.249 4.022-.249 6.017 0 19.299 6.671 37.755 19.017 52.876-1.496 1.247-6.827 5.768-8.573 7.233-14.061-17.241-21.668-38.254-21.668-60.171z"/></g><g fill="#e5e9eb"><path d="m9.75446 182.131c-1.03457 4.181-5.0989 6.771-9.274109 5.994-.295589 2.479-.4434023 4.958-.480351 7.4 4.21215-.222 7.94397 2.849 8.4243 7.141.48034 4.292-2.5125 8.103-6.68771 8.806.59118 2.368 1.25629 4.736 2.10611 7.067 3.87961-1.665 8.4243 0 10.3456 3.848 1.8844 3.848.4064 8.436-3.2884 10.545 1.3671 2.072 2.8081 4.033 4.3599 5.957 3.1037-2.886 7.944-2.886 11.0477.074s3.2884 7.807.5542 11.063c1.9583 1.443 4.0274 2.812 6.1705 4.07 1.9213-3.774 6.429-5.439 10.3825-3.7 3.9166 1.739 5.7271 6.215 4.2861 10.174 2.3647.74 4.8033 1.295 7.1681 1.813.5172-4.255 4.2121-7.362 8.4982-7.103 4.286.296 7.5006 3.884 7.5006 8.102 2.4755-.148 4.9141-.407 7.3158-.814-.9237-4.144 1.4779-8.325 5.5792-9.546 4.1013-1.183 8.3505 1.037 9.7915 5.033 2.2538-.962 4.4707-2.072 6.6138-3.256-2.2909-3.589-1.478-8.325 1.995-10.878 3.436-2.516 8.24-1.887 10.974 1.406 1.773-1.702 3.473-3.478 5.099-5.365-3.399-2.553-4.286-7.326-1.884-10.915 2.364-3.552 7.094-4.551 10.752-2.442.554-1.073 1.071-2.183 1.551-3.33.481-1.11.961-2.257 1.404-3.404-4.027-1.258-6.503-5.439-5.468-9.62.998-4.181 5.099-6.734 9.311-5.994.296-2.479.444-4.921.48-7.363-4.249.185-7.944-2.886-8.424-7.178-.48-4.255 2.476-8.103 6.651-8.806-.554-2.405-1.256-4.773-2.069-7.067-3.917 1.628-8.461 0-10.346-3.847-1.884-3.848-.443-8.436 3.252-10.582-1.33-2.035-2.808-4.033-4.36-5.957-3.141 2.886-7.944 2.923-11.048-.074s-3.288-7.807-.554-11.026c-1.958-1.48-4.028-2.812-6.171-4.107-1.921 3.737-6.4657 5.402-10.3822 3.7-3.9535-1.739-5.764-6.216-4.2861-10.138-2.4017-.74-4.7664-1.332-7.168-1.776-.5173 4.218-4.1752 7.326-8.4982 7.067-4.286-.259-7.5375-3.848-7.5006-8.103-2.4755.148-4.9142.407-7.3528.814.9607 4.144-1.441 8.325-5.5423 9.509-4.1383 1.221-8.4243-1.036-9.8284-5.032-2.2908.962-4.4708 2.072-6.6508 3.256 2.2909 3.552 1.5149 8.325-1.9582 10.878-3.4732 2.516-8.2765 1.887-10.9368-1.369-1.7736 1.665-3.4732 3.441-5.099 5.328 3.3993 2.553 4.2491 7.326 1.8475 10.878-2.3647 3.589-7.0942 4.588-10.75211 2.479-.55423 1.073-1.10844 2.183-1.58877 3.33-.51728 1.147-.96065 2.294-1.36708 3.403 4.1013 1.332 6.53986 5.513 5.50532 9.657zm13.59714 23.569 27.6376-3.034c1.0715 2.738 2.8451 5.18 5.1728 7.104l-11.1954 25.493c-11.3802-6.475-18.9916-17.39-21.615-29.563zm51.1739-6.29c-1.7735 4.07-6.5029 5.883-10.5673 4.107-4.0643-1.776-5.9118-6.512-4.1013-10.582 1.7735-4.07 6.503-5.883 10.5304-4.107 4.0644 1.813 5.9118 6.549 4.1382 10.582zm-21.0238 39.59 11.1955-25.493c2.9559.444 5.9487.074 8.7199-.962l16.4422 22.459c-10.7521 6.253-23.9059 7.992-36.3576 3.996zm54.7583-24.716c-2.624 5.994-6.392 11.1-10.9371 15.207l-16.4422-22.459c.8868-1.147 1.6997-2.405 2.2908-3.774.5912-1.369.9977-2.812 1.2193-4.255l27.6382-3.034c.073 6.105-1.146 12.321-3.769 18.315zm2.771-27.602-27.6377 3.034c-1.0715-2.738-2.8451-5.18-5.1729-7.067l11.1955-25.492c11.3801 6.475 18.9921 17.389 21.6151 29.525zm-30.1503-33.262-11.1954 25.492c-2.9929-.444-5.9857-.074-8.7199.962l-16.4791-22.458c10.789-6.253 23.9427-8.029 36.3944-3.996zm-54.7579 24.678c2.6233-5.994 6.3921-11.062 10.9368-15.206l16.4421 22.458c-.8868 1.147-1.6996 2.405-2.2908 3.774-.6281 1.406-.9976 2.812-1.2562 4.255l-27.6376 3.034c-.037-6.105 1.1823-12.321 3.8057-18.315z"/><path d="m539.754 458.131c-1.034 4.181-5.098 6.771-9.274 5.994-.295 2.479-.443 4.958-.48 7.4 4.212-.222 7.944 2.849 8.424 7.141.481 4.292-2.512 8.103-6.687 8.806.591 2.368 1.256 4.736 2.106 7.067 3.879-1.665 8.424 0 10.345 3.848 1.885 3.848.407 8.436-3.288 10.545 1.367 2.072 2.808 4.033 4.36 5.957 3.104-2.886 7.944-2.886 11.047.074 3.104 2.96 3.289 7.807.555 11.063 1.958 1.443 4.027 2.812 6.17 4.07 1.921-3.774 6.429-5.439 10.383-3.7 3.916 1.739 5.727 6.215 4.286 10.174 2.365.74 4.803 1.295 7.168 1.813.517-4.255 4.212-7.362 8.498-7.103 4.286.296 7.501 3.884 7.501 8.102 2.475-.148 4.914-.407 7.315-.814-.923-4.144 1.478-8.325 5.58-9.546 4.101-1.183 8.35 1.037 9.791 5.033 2.254-.962 4.471-2.072 6.614-3.256-2.291-3.589-1.478-8.325 1.995-10.878 3.436-2.516 8.24-1.887 10.974 1.406 1.773-1.702 3.473-3.478 5.099-5.365-3.399-2.553-4.286-7.326-1.884-10.915 2.364-3.552 7.094-4.551 10.752-2.442.554-1.073 1.071-2.183 1.551-3.33.481-1.11.961-2.257 1.404-3.404-4.027-1.258-6.503-5.439-5.468-9.62.998-4.181 5.099-6.734 9.311-5.994.296-2.479.444-4.921.48-7.363-4.249.185-7.944-2.886-8.424-7.178-.48-4.255 2.476-8.103 6.651-8.806-.554-2.405-1.256-4.773-2.069-7.067-3.917 1.628-8.461 0-10.346-3.847-1.884-3.848-.443-8.436 3.252-10.582-1.33-2.035-2.808-4.033-4.36-5.957-3.141 2.886-7.944 2.923-11.048-.074s-3.288-7.807-.554-11.026c-1.958-1.48-4.028-2.812-6.171-4.107-1.921 3.737-6.466 5.402-10.382 3.7-3.954-1.739-5.764-6.216-4.286-10.138-2.402-.74-4.767-1.332-7.168-1.776-.518 4.218-4.176 7.326-8.498 7.067-4.287-.259-7.538-3.848-7.501-8.103-2.476.148-4.914.407-7.353.814.961 4.144-1.441 8.325-5.542 9.509-4.138 1.221-8.425-1.036-9.829-5.032-2.29.962-4.47 2.072-6.65 3.256 2.29 3.552 1.515 8.325-1.959 10.878-3.473 2.516-8.276 1.887-10.936-1.369-1.774 1.665-3.474 3.441-5.099 5.328 3.399 2.553 4.249 7.326 1.847 10.878-2.365 3.589-7.094 4.588-10.752 2.479-.554 1.073-1.108 2.183-1.589 3.33-.517 1.147-.96 2.294-1.367 3.403 4.101 1.332 6.54 5.513 5.505 9.657zm13.598 23.569 27.637-3.034c1.072 2.738 2.845 5.18 5.173 7.104l-11.195 25.493c-11.381-6.475-18.992-17.39-21.615-29.563zm51.174-6.29c-1.774 4.07-6.503 5.883-10.568 4.107-4.064-1.776-5.912-6.512-4.101-10.582 1.773-4.07 6.503-5.883 10.53-4.107 4.065 1.813 5.912 6.549 4.139 10.582zm-21.024 39.59 11.195-25.493c2.956.444 5.949.074 8.72-.962l16.442 22.459c-10.752 6.253-23.906 7.992-36.357 3.996zm54.758-24.716c-2.624 5.994-6.392 11.1-10.937 15.207l-16.442-22.459c.886-1.147 1.699-2.405 2.291-3.774.591-1.369.997-2.812 1.219-4.255l27.638-3.034c.073 6.105-1.146 12.321-3.769 18.315zm2.771-27.602-27.638 3.034c-1.071-2.738-2.845-5.18-5.173-7.067l11.196-25.492c11.38 6.475 18.992 17.389 21.615 29.525zm-30.15-33.262-11.196 25.492c-2.993-.444-5.985-.074-8.72.962l-16.479-22.458c10.789-6.253 23.943-8.029 36.395-3.996zm-54.758 24.678c2.623-5.994 6.392-11.062 10.937-15.206l16.442 22.458c-.887 1.147-1.7 2.405-2.291 3.774-.628 1.406-.998 2.812-1.256 4.255l-27.638 3.034c-.037-6.105 1.182-12.321 3.806-18.315z"/><path d="m139.934 94.5489c2.757-5.7158.342-12.599-5.394-15.3764-2.777-1.3283-5.897-1.5094-8.795-.483h-.02c-2.898 1.0063-5.233 3.0995-6.561 5.8567-1.369 2.858-1.449 6.0178-.483 8.7952.986 2.7774 2.998 5.1925 5.876 6.5611 5.736 2.7775 12.62.3625 15.377-5.3536zm-13.102-12.8002c4.307-1.5095 9.036.7647 10.546 5.0717 1.529 4.3272-.765 9.0367-5.072 10.5462s-9.037-.7648-10.546-5.0718c-1.53-4.307.745-9.0568 5.072-10.5461zm-11.13 12.6593c.825 2.3347-.302 4.8705-2.516 5.877 1.087 1.67 2.415 3.14 3.885 4.367 1.247-2.093 3.884-2.938 6.118-1.871 2.234 1.066 3.24 3.662 2.355 5.937 1.891.402 3.864.523 5.856.342-.603-2.355.685-4.81 3.019-5.635 2.315-.826 4.871.301 5.857 2.535 1.67-1.106 3.14-2.415 4.367-3.904-2.093-1.228-2.918-3.8844-1.851-6.0983 1.086-2.234 3.683-3.2403 5.937-2.3748.402-1.8919.503-3.8643.322-5.8568-2.355.6038-4.81-.6641-5.635-2.9987-.826-2.3347.301-4.8706 2.535-5.8568-1.106-1.6704-2.415-3.1397-3.904-4.3674-1.228 2.0932-3.884 2.9385-6.118 1.8517-2.234-1.0667-3.22-3.663-2.355-5.9373-1.892-.4025-3.864-.5233-5.837-.322.604 2.3548-.684 4.8102-3.019 5.6354-2.334.8251-4.87-.3019-5.856-2.5359-1.671 1.0868-3.14 2.4151-4.368 3.9246 2.093 1.2277 2.939 3.8642 1.852 6.0982-1.067 2.234-3.663 3.2202-5.937 2.3547-.403 1.8919-.503 3.8643-.322 5.8367 2.334-.6038 4.81.6641 5.615 2.9987zm2.979-10.0832c1.388-2.8981 3.844-5.0919 6.883-6.1586s6.319-.8855 9.218.5233c5.997 2.8982 8.533 10.1034 5.635 16.1009-2.878 5.9976-10.104 8.5336-16.101 5.6356-5.978-2.8783-8.513-10.1036-5.635-16.1012z"/><path d="m352.467 333.212c-1.023-2.721-2.146-5.54-3.384-8.343-1.205-2.753-2.526-5.474-3.863-8.112-8.98 5.177-20.52 2.671-26.331-6.051-5.828-8.688-3.731-20.345 4.573-26.594-3.946-4.633-8.139-8.969-12.497-13.025-6.587 7.98-18.341 9.53-26.81 3.364-8.469-6.216-10.45-17.873-4.804-26.545-5.266-2.935-10.681-5.589-16.245-7.963-3.466 9.76-13.949 15.25-24.053 12.283-10.037-2.935-15.914-13.174-13.586-23.264-5.927-.973-11.919-1.616-17.962-1.962.05 10.321-7.924 19.076-18.407 19.735-10.499.676-19.48-6.924-20.767-17.212-5.894 1.121-11.722 2.588-17.549 4.352 3.566 9.629-.875 20.56-10.516 24.797-9.575 4.205-20.652.099-25.39-9.035-5.234 3.1-10.302 6.397-15.0892 9.975 6.7682 7.881 6.2572 19.637-1.3372 26.907-7.5774 7.255-19.3481 7.205-26.9916.182-3.83 4.682-7.3958 9.546-10.6645 14.525 8.9972 5.161 12.5795 16.389 7.9241 25.803-4.6389 9.398-15.6997 13.388-25.3242 9.365-1.948 5.671-3.6649 11.442-5.0516 17.295 10.2023 1.731 17.4496 11.08 16.294 21.516-1.1556 10.404-10.2519 17.955-20.6358 17.493.066 5.919.4787 11.921 1.1721 17.955 10.2353-1.847 20.2891 4.452 22.7654 14.641 2.4928 10.172-3.4998 20.395-13.3885 23.461 1.0566 2.787 2.2287 5.59 3.4338 8.326 1.2381 2.803 2.5093 5.557 3.83 8.162 8.9642-5.128 20.5367-2.688 26.3477 6.001 5.8606 8.771 3.6979 20.412-4.5894 26.611 3.9621 4.583 8.1553 8.969 12.4971 13.091 6.6364-8.013 18.3738-9.612 26.8268-3.413 8.485 6.232 10.45 17.856 4.87 26.578 5.183 2.918 10.631 5.572 16.145 7.93 3.533-9.777 13.983-15.201 24.02-12.267 10.103 2.952 15.964 13.124 13.702 23.264 5.894.989 11.853 1.583 17.912 1.962-.016-10.321 7.908-19.076 18.391-19.768 10.483-.693 19.496 6.957 20.767 17.311 5.845-1.203 11.738-2.605 17.566-4.369-3.566-9.711.908-20.625 10.483-24.846 9.641-4.238 20.685-.116 25.406 9.068 5.267-3.1 10.252-6.447 15.089-9.959-6.719-7.947-6.29-19.751 1.321-26.989 7.577-7.238 19.43-7.172 27.008-.165 3.813-4.699 7.396-9.497 10.714-14.509-9.063-5.177-12.613-16.372-8.023-25.786 4.688-9.382 15.799-13.421 25.324-9.382 2.031-5.688 3.748-11.459 5.151-17.295-10.252-1.781-17.532-11.047-16.36-21.533 1.172-10.42 10.285-17.971 20.619-17.41-.066-5.985-.446-12.036-1.189-18.054-10.202 1.913-20.206-4.402-22.715-14.608-2.477-10.189 3.499-20.362 13.371-23.494zm-99.546 153.102-27.405-62.257c5.762-4.633 10.054-10.618 12.712-17.295l67.636 7.436c-6.455 29.677-25.093 56.304-52.943 72.116zm-62.287-113.236c9.921-4.352 21.494.116 25.836 10.025 4.374 9.925-.132 21.45-10.071 25.802-9.872 4.336-21.461-.115-25.819-10.04-4.375-9.909.165-21.451 10.054-25.787zm-47.578 112.593 40.297-54.821c6.703 2.572 14.033 3.446 21.296 2.374l27.388 62.257c-30.458 9.777-62.716 5.49-88.981-9.81zm-54.396-95.297 67.669 7.452c.561 3.462 1.519 6.99 2.988 10.354 1.502 3.396 3.45 6.463 5.629 9.266l-40.248 54.804c-11.11-10.057-20.338-22.522-26.7767-37.13-6.3723-14.575-9.3273-29.792-9.2613-44.746zm55.436-94.688 27.404 62.224c-5.728 4.633-10.021 10.618-12.662 17.262l-67.6687-7.403c6.4384-29.661 25.1097-56.288 52.9267-72.083zm109.881.627-40.297 54.788c-6.653-2.572-14.016-3.43-21.296-2.358l-27.388-62.24c30.458-9.794 62.732-5.507 88.981 9.81zm54.38 95.297-67.62-7.452c-.594-3.512-1.535-6.974-3.054-10.371-1.486-3.38-3.401-6.463-5.613-9.233l40.248-54.82c11.111 10.057 20.339 22.521 26.761 37.096 6.405 14.592 9.36 29.81 9.278 44.78z"/><path d="m812.477 93.773c-.731-1.9408-1.533-3.9521-2.418-5.9517-.86-1.9644-1.804-3.9051-2.759-5.7871-6.415 3.6934-14.657 1.9055-18.808-4.3168-4.162-6.1987-2.665-14.5147 3.266-18.9726-2.818-3.3053-5.813-6.3988-8.926-9.2923-4.705 5.693-13.101 6.7986-19.15 2.3995-6.049-4.4344-7.464-12.7503-3.431-18.9373-3.762-2.0937-7.63-3.9875-11.604-5.6813-2.476 6.9634-9.964 10.8802-17.18 8.763-7.17-2.0937-11.368-9.3981-9.705-16.5967-4.233-.694-8.514-1.1527-12.83-1.3997.036 7.3632-5.66 13.609-13.147 14.0795-7.5.4823-13.915-4.9402-14.835-12.2799-4.209.7999-8.372 1.8467-12.534 3.1053 2.547 6.8692-.625 14.6676-7.512 17.6906-6.839 2.9994-14.751.0705-18.136-6.4458-3.738 2.2113-7.358 4.5638-10.777 7.1162 4.834 5.6224 4.469 14.009-.956 19.1962-5.412 5.1754-13.82 5.1401-19.279.1293-2.736 3.3405-5.283 6.8104-7.618 10.3627 6.427 3.6816 8.986 11.6917 5.66 18.408-3.313 6.7046-11.214 9.5511-18.088 6.681-1.392 4.0459-2.618 8.1629-3.609 12.3389 7.288 1.235 12.464 7.904 11.639 15.35-.826 7.422-7.323 12.809-14.74 12.48.047 4.222.342 8.504.837 12.809 7.311-1.318 14.492 3.176 16.261 10.445 1.781 7.257-2.5 14.55-9.563 16.738.755 1.987 1.592 3.987 2.453 5.939.884 2 1.792 3.964 2.735 5.823 6.403-3.658 14.669-1.917 18.82 4.281 4.186 6.258 2.642 14.562-3.278 18.985 2.83 3.27 5.825 6.398 8.927 9.339 4.74-5.716 13.124-6.857 19.161-2.435 6.061 4.446 7.465 12.739 3.479 18.961 3.703 2.082 7.594 3.976 11.532 5.658 2.524-6.975 9.988-10.845 17.158-8.751 7.216 2.105 11.402 9.362 9.787 16.596 4.209.706 8.466 1.129 12.794 1.4-.012-7.363 5.648-13.609 13.136-14.103s13.926 4.964 14.834 12.35c4.175-.858 8.384-1.858 12.547-3.117-2.547-6.928.648-14.714 7.488-17.725 6.886-3.023 14.775-.083 18.147 6.469 3.762-2.211 7.323-4.599 10.778-7.105-4.799-5.669-4.493-14.091.943-19.255 5.413-5.163 13.879-5.116 19.292-.117 2.724-3.352 5.283-6.775 7.653-10.351-6.474-3.693-9.009-11.68-5.731-18.396 3.349-6.693 11.285-9.575 18.089-6.693 1.45-4.058 2.676-8.175 3.679-12.339-7.323-1.27-12.523-7.881-11.686-15.361.837-7.434 7.346-12.821 14.728-12.421-.047-4.27-.318-8.587-.849-12.88-7.287 1.364-14.433-3.141-16.226-10.422-1.768-7.269 2.5-14.5262 9.552-16.761zm-71.105 109.225-19.575-44.414c4.116-3.306 7.182-7.575 9.08-12.339l48.311 5.305c-4.61 21.172-17.923 40.168-37.816 51.448zm-44.491-80.784c7.087-3.105 15.353.083 18.454 7.152 3.125 7.081-.094 15.303-7.193 18.408-7.051 3.093-15.329-.082-18.442-7.163-3.125-7.07.118-15.303 7.181-18.397zm-33.984 80.325 28.784-39.109c4.787 1.835 10.023 2.458 15.211 1.693l19.563 44.415c-21.756 6.975-44.797 3.917-63.558-6.999zm-38.854-67.986 48.335 5.317c.401 2.47 1.085 4.987 2.134 7.386 1.073 2.423 2.465 4.611 4.021 6.611l-28.749 39.098c-7.935-7.175-14.527-16.068-19.126-26.489-4.552-10.398-6.662-21.255-6.615-31.923zm39.597-67.5511 19.574 44.3911c-4.091 3.305-7.157 7.575-9.044 12.315l-48.335-5.281c4.599-21.1606 17.936-40.1568 37.805-51.4251zm78.487.447-28.784 39.0861c-4.753-1.835-10.012-2.446-15.212-1.682l-19.563-44.4027c21.756-6.9868 44.809-3.9286 63.559 6.9986zm38.842 67.9861-48.3-5.316c-.424-2.506-1.096-4.976-2.181-7.399-1.061-2.411-2.429-4.611-4.009-6.587l28.748-39.1096c7.936 7.1751 14.528 16.0674 19.115 26.4656 4.575 10.409 6.686 21.266 6.627 31.946z"/><path d="m687.505 287.355c-.145 3.09-2.674 5.547-5.764 5.583-3.072.037-5.673-2.367-5.908-5.456l-.091-1.265-8.835 1.68.433 1.211c.922 2.981-.614 6.161-3.487 7.245s-6.125-.271-7.408-3.107l-.524-1.139-3.885 2.187-3.812 2.385.777.975c1.861 2.476 1.518 5.999-.795 8.005-2.349 2.023-5.873 1.843-8.023-.398l-.885-.921-5.746 7.01 1.12.651c2.62 1.68 3.488 5.095 1.988 7.787-1.5 2.675-4.879 3.741-7.679 2.404l-1.157-.543-2.945 8.493 1.265.235c3.017.686 4.987 3.595 4.499 6.631-.506 3.089-3.252 5.185-6.378 4.878l-1.265-.126.126 8.998 1.265-.217c3.072-.379 5.927 1.681 6.505 4.698.578 3.036-1.337 5.999-4.355 6.74l-1.246.307 3.252 8.438 1.102-.633c2.747-1.409 6.144-.451 7.716 2.187s.795 6.071-1.753 7.805l-1.048.705 5.854 6.866.831-.976c2.114-2.294 5.638-2.547 8.023-.596 2.385 1.952 2.837 5.439 1.03 7.95l-.741 1.03 7.86 4.427.451-1.211c1.193-2.854 4.409-4.3 7.318-3.306 2.909 1.03 4.535 4.156 3.686 7.119l-.343 1.229 8.908 1.499v-1.283c.162-3.107 2.692-5.583 5.764-5.619 3.089-.036 5.673 2.367 5.89 5.457l.09 1.283 8.908-1.699-.452-1.21c-.939-2.946.597-6.126 3.488-7.228 2.855-1.084 6.107.271 7.408 3.09l.506 1.12 3.903-2.168 3.794-2.421-.759-.976c-1.861-2.475-1.5-5.981.831-7.986 2.331-2.024 5.855-1.843 8.005.379l.885.922 5.71-7.011-1.12-.632c-2.602-1.663-3.47-5.078-1.97-7.788 1.518-2.692 4.879-3.74 7.661-2.367l1.157.56 2.963-8.546-1.265-.217c-3.017-.687-5.005-3.596-4.499-6.649.506-3.036 3.306-5.168 6.378-4.843l1.283.127-.126-9.035-1.265.217c-3.072.398-5.927-1.68-6.505-4.698-.578-3.017 1.337-5.98 4.336-6.757l1.247-.307-3.234-8.438-1.102.632c-2.747 1.409-6.126.452-7.697-2.186-1.572-2.638-.796-6.071 1.752-7.806l1.048-.723-5.89-6.884-.831 1.012c-2.078 2.277-5.584 2.53-7.987.578-2.367-1.933-2.836-5.439-1.03-7.968l.741-1.03-7.86-4.391-.433 1.211c-1.211 2.855-4.427 4.282-7.336 3.27s-4.517-4.137-3.686-7.119l.343-1.228-8.908-1.464v1.355zm-5.728 7.878c3.849-.054 6.939-2.855 7.697-6.523 1.103.181 3.036.488 4.21.687-.036.325-.126.632-.126.958 0 3.378 2.114 6.522 5.421 7.679 3.631 1.265 7.534-.271 9.522-3.469 1.012.56 2.692 1.499 3.704 2.077-.578 1.157-.958 2.386-.958 3.632 0 2.367 1.012 4.698 2.963 6.288 3 2.439 7.138 2.241 10.065-.072.74.867 2.186 2.548 2.891 3.379-1.645 1.554-2.711 3.595-2.711 5.782 0 1.409.362 2.836 1.139 4.119 1.969 3.307 5.908 4.517 9.468 3.361.379 1.012 1.138 2.999 1.572 4.084-2.982 1.282-4.987 4.137-4.987 7.372 0 .487.036.993.144 1.499.705 3.795 3.993 6.469 7.752 6.577.018 1.193.036 2.982.054 4.156-3.74.199-6.957 2.909-7.589 6.722-.072.433-.108.885-.108 1.319 0 3.306 2.096 6.215 5.185 7.444-.379 1.102-1.066 3.071-1.427 4.119-3.578-1.084-7.517.253-9.396 3.596-.686 1.247-1.03 2.602-1.03 3.957 0 2.295 1.012 4.481 2.783 6.053-.759.922-2.006 2.458-2.692 3.307-3-2.259-7.174-2.331-10.083.198-1.843 1.591-2.818 3.867-2.818 6.162 0 1.319.433 2.62 1.084 3.83-.777.506-1.789 1.139-1.789 1.139s-1.048.578-1.843 1.03c-2.078-3.144-6.035-4.608-9.613-3.253-3.234 1.229-5.239 4.301-5.239 7.589 0 .398.126.795.18 1.193-1.156.216-3.108.596-4.228.813-.849-3.65-4.011-6.378-7.86-6.342-3.83.054-6.92 2.854-7.697 6.541-1.102-.181-3.054-.525-4.21-.705.036-.325.145-.651.145-.976 0-3.361-2.114-6.505-5.439-7.679-3.632-1.247-7.535.307-9.504 3.487-1.012-.578-2.692-1.518-3.686-2.078.578-1.156.958-2.385.958-3.631 0-2.367-1.03-4.698-2.964-6.288-2.963-2.44-7.137-2.259-10.1.072-.759-.885-2.168-2.548-2.891-3.379 1.662-1.572 2.728-3.596 2.728-5.8 0-1.409-.361-2.837-1.138-4.12-1.97-3.288-5.927-4.499-9.486-3.342-.38-1.012-1.138-2.982-1.572-4.084 2.999-1.283 5.023-4.138 5.023-7.372 0-.488-.054-.994-.144-1.518-.723-3.776-4.012-6.432-7.77-6.558-.018-1.193-.036-3-.054-4.156 3.74-.217 6.974-2.945 7.589-6.74.072-.434.108-.867.108-1.301 0-3.306-2.096-6.197-5.186-7.444.38-1.102 1.066-3.072 1.428-4.102 3.595 1.048 7.534-.289 9.395-3.631.705-1.247 1.03-2.602 1.03-3.939 0-2.295-1.03-4.499-2.8-6.071.759-.922 2.005-2.458 2.71-3.307 2.999 2.259 7.173 2.331 10.1-.181 1.843-1.59 2.783-3.866 2.783-6.143 0-1.337-.416-2.62-1.066-3.849.777-.487 1.807-1.138 1.807-1.138s1.048-.578 1.843-1.03c2.06 3.162 6.017 4.608 9.63 3.252 3.217-1.21 5.24-4.318 5.24-7.625 0-.397-.126-.795-.18-1.192 1.156-.217 3.107-.596 4.191-.795.832 3.668 4.012 6.396 7.842 6.36z"/><path d="m649.508 368.412.759 1.012c6.775 9.106 17.183 14.924 28.548 15.972l1.265.109-.343-26.272-.85-.217c-2.312-.596-4.445-1.789-6.143-3.433l-.632-.614zm22.369-10.661c1.626 1.41 3.523 2.458 5.583 3.126.018 1.319.253 19.587.289 21.99-9.775-1.229-18.665-6.198-24.79-13.859 2.06-1.229 17.779-10.57 18.918-11.257z"/><path d="m678.307 338.49c-1.861 1.102-3.18 2.873-3.722 4.969-.524 2.096-.217 4.264.885 6.125s2.873 3.18 4.969 3.722c2.096.524 4.282.217 6.143-.903 3.831-2.277 5.096-7.246 2.819-11.094-2.295-3.831-7.282-5.114-11.094-2.819zm2.692 12.594c-1.499-.38-2.764-1.337-3.559-2.674s-1.03-2.891-.633-4.409c.38-1.5 1.319-2.783 2.674-3.578 2.747-1.644 6.324-.722 7.969 2.024.56.94.813 1.951.813 2.963 0 1.988-1.012 3.921-2.837 5.005-1.355.832-2.927 1.048-4.427.669z"/><path d="m645.593 329.562c-4.499 10.48-4.337 22.405.415 32.704l.524 1.139 22.604-13.443-.235-.832c-.632-2.276-.65-4.715-.09-7.028l.217-.849-22.947-12.865zm-.994 15.919c0-4.68.976-9.342 2.692-13.787 2.096 1.175 18.033 10.101 19.207 10.751-.198.994-.361 2.006-.361 3.018 0 1.138.217 2.258.452 3.36-1.121.669-16.84 10.028-18.918 11.257-1.97-4.662-3.072-9.612-3.072-14.599z"/><path d="m677.744 305.586c-5.62.669-10.95 2.475-15.828 5.366-4.879 2.909-9.017 6.722-12.287 11.365l-.723 1.03 22.839 12.793.705-.56 2.8-2.223c.994-.578 2.078-1.048 3.253-1.391l.831-.235-.325-26.29zm-14.654 7.336c4.228-2.512 8.836-4.029 13.678-4.77.036 2.403.271 20.67.289 21.989-1.03.362-2.06.723-2.945 1.265 0 0-1.59 1.247-2.548 2.006-1.156-.651-17.093-9.577-19.189-10.751 2.928-3.903 6.487-7.228 10.715-9.739z"/><path d="m685.165 331.659.831.216c2.313.615 4.445 1.789 6.125 3.433l.632.615 22.586-13.443-.759-1.012c-6.775-9.107-17.165-14.925-28.53-15.973l-1.265-.108zm1.969-23.652c9.775 1.228 18.647 6.197 24.772 13.858-2.06 1.229-17.779 10.57-18.918 11.257-1.626-1.391-3.505-2.439-5.565-3.108-.018-1.319-.253-19.586-.289-22.007z"/><path d="m695.727 340.911.234.831c.633 2.295.669 4.734.091 7.029l-.217.849 22.929 12.865.506-1.156c4.517-10.48 4.355-22.405-.416-32.704l-.524-1.139zm21.483-10.118c1.97 4.662 3.072 9.612 3.072 14.617 0 4.68-.976 9.342-2.71 13.787-2.096-1.175-18.033-10.119-19.189-10.769.18-.994.361-1.988.361-3 0-1.138-.217-2.258-.452-3.378 1.121-.687 16.84-10.028 18.918-11.257z"/><path d="m692.4 355.311c-.849.867-1.789 1.608-2.783 2.204-.976.579-2.042 1.048-3.27 1.41l-.831.253.325 26.272 1.265-.145c5.619-.65 10.967-2.457 15.846-5.366 4.878-2.891 8.998-6.722 12.268-11.366l.723-1.029-22.947-12.829zm-1.608 4.156c.903-.542 1.716-1.265 2.529-1.988 1.157.651 17.111 9.559 19.207 10.733-2.945 3.903-6.504 7.246-10.733 9.739-4.228 2.512-8.853 4.047-13.677 4.788-.037-2.403-.253-20.67-.272-21.989 1.012-.362 2.042-.741 2.946-1.283z"/><path d="m431.392 692.663c7.211-11.7 3.54-27.111-8.216-34.358-5.681-3.493-12.411-4.584-18.879-3.013h-.044c-6.468 1.528-11.974 5.501-15.47 11.176-3.584 5.894-4.502 12.661-3.016 18.904 1.486 6.199 5.332 11.875 11.188 15.498 11.799 7.203 27.183 3.536 34.437-8.207zm-25.478-30.56c9.658-2.27 19.36 3.667 21.632 13.315 2.316 9.648-3.671 19.34-13.329 21.61-9.658 2.314-19.36-3.667-21.632-13.315-2.273-9.605 3.671-19.34 13.329-21.61zm-26.833 24.841c1.267 5.238-1.748 10.477-6.774 12.092 2.01 3.842 4.501 7.335 7.429 10.304 3.147-4.235 9.047-5.458 13.635-2.664 4.589 2.794 6.162 8.644 3.759 13.316 4.02 1.309 8.259 1.964 12.542 2.008-.786-5.239 2.535-10.259 7.779-11.482 5.201-1.266 10.445 1.747 12.062 6.767 3.846-2.008 7.342-4.497 10.313-7.465-4.239-3.144-5.462-9.037-2.665-13.578 2.84-4.584 8.653-6.155 13.372-3.798 1.268-3.973 1.967-8.251 1.967-12.573-5.201.786-10.226-2.532-11.494-7.771-1.223-5.195 1.748-10.434 6.774-12.093-2.01-3.842-4.501-7.334-7.473-10.303-3.103 4.235-9.046 5.457-13.591 2.62-4.589-2.794-6.162-8.601-3.758-13.316-4.021-1.266-8.26-1.964-12.543-2.008.787 5.195-2.535 10.259-7.779 11.482-5.2 1.266-10.445-1.747-12.105-6.767-3.846 1.965-7.298 4.497-10.314 7.465 4.239 3.1 5.463 8.994 2.666 13.578-2.841 4.584-8.653 6.155-13.373 3.754-1.267 4.016-1.966 8.208-2.01 12.53 5.288-.612 10.314 2.663 11.581 7.902zm8.697-21.087c3.671-5.937 9.439-10.128 16.257-11.744 6.817-1.615 13.853-.48 19.797 3.187 12.28 7.597 16.169 23.75 8.609 36.017-7.561 12.268-23.73 16.153-36.054 8.557-12.324-7.552-16.213-23.749-8.609-36.017z"/></g></svg>