<svg fill="none" height="21" viewBox="0 0 92 21" width="92" xmlns="http://www.w3.org/2000/svg"><path d="m7.50575 13.7188-4.79872 6.6828h3.56224l3.12064-4.151z" fill="#0e6aed"/><path d="m19.4892 17.5168-5.5348-7.3306 5.5053-7.30108-2.1491-2.85568-5.3581 7.47776-5.62303-7.5072h-3.59168l14.60221 20.3725z" fill="#0e6aed"/><path d="m13.1303 0-3.0912 4.09216 1.9136 2.53184 4.7692-6.624z" fill="#2437bf"/><path d="m13.1597 20.4032h3.5917l-14.63172-20.3724383-2.11968 2.8556783 5.47584 7.30116-5.47584 7.2716 2.09024 2.9146 5.38752-7.5366z" fill="#2437bf"/><g fill="#0e6aed"><path clip-rule="evenodd" d="m20.0471 14.5428c1.1481 1.2364 2.7379 1.9136 4.416 1.8841.8537 0 1.7075-.1766 2.4729-.5005 1.4426-.6476 2.5908-1.8547 3.1796-3.3561.2944-.7655.4416-1.5603.4416-2.3847 0-.82427-.1472-1.64859-.4416-2.41403-.265-.736-.7066-1.41312-1.2365-2.00192-1.1482-1.23648-2.7379-1.9136-4.416-1.88416-.8538-.02944-1.7075.1472-2.473.50048-.7065.32384-1.3837.76544-1.9136 1.35424s-.9421 1.26592-1.2365 2.00192c-.2944.76544-.4416 1.58976-.4416 2.41407 0 .8243.1472 1.6192.4416 2.3846.265.736.6772 1.4132 1.2071 2.002zm.7377-2.5906c-.2355-.5594-.3239-1.1776-.3239-1.7664 0-.58884.1178-1.17764.3239-1.79588.2061-.52992.471-1.0304.8537-1.44256.3533-.41216.7949-.736 1.266-.97152.471-.23552 1.0304-.35328 1.5603-.35328s1.0598.11776 1.5603.35328.9421.55936 1.2954.97152c.3532.4416.6476.91264.8537 1.44256.2355.55936.3239 1.14816.3239 1.73698 0 .5888-.1178 1.207-.3239 1.7664-.1766.5299-.471 1.0304-.8537 1.4425-.3828.4122-.7949.736-1.2954.9716-1.001.471-2.1197.471-3.1206 0-.4711-.2356-.9127-.5594-1.266-.9421-.3827-.4122-.6476-.8832-.8537-1.4131z" fill-rule="evenodd"/><path d="m50.0168 16.1916h-2.0313v-6.77121c0-1.26592-.2061-2.208-.6183-2.7968-.4121-.5888-1.0893-.94208-1.8253-.91264-.8243 0-1.6192.32384-2.2374.8832-.6771.61824-1.1482 1.41312-1.4131 2.29632v7.30113h-2.0314v-6.77121c0-1.29536-.2061-2.23744-.5888-2.82624-.4121-.5888-1.0893-.91264-1.7958-.8832-.8243 0-1.6192.32384-2.208.85376-.7066.61824-1.2071 1.41312-1.4426 2.32576v7.30113h-2.0313v-12.07041h1.8547v2.59072c.4416-.85376 1.1187-1.56032 1.9136-2.0608s1.7075-.736 2.6496-.736c.8832-.05888 1.7369.23552 2.4141.82432.5888.55936 1.0009 1.29536 1.0892 2.11968 1.0893-1.97248 2.6202-2.944 4.5927-2.944.6182-.02944 1.207.11776 1.7369.38272.4711.23552.8538.61824 1.1188 1.05984.2944.50048.5004 1.0304.5888 1.6192.1177.67712.1766 1.3248.1766 2.00192z"/><path clip-rule="evenodd" d="m54.9904 15.927c.7949.3533 1.6486.5005 2.5024.5005.5888 0 1.1776-.0884 1.7075-.1767.5299-.1472 1.0599-.3533 1.5309-.6477.4416-.2649.8538-.5888 1.207-.9715.3533-.3827.6183-.7949.8244-1.2365l-1.7664-.5004c-.1178.2944-.2944.5888-.53.8243-.2355.2355-.5299.4416-.8243.6182-.3238.1767-.6477.3239-1.0009.4122-.3533.0883-.736.1472-1.0893.1472-.5299 0-1.0304-.0883-1.5015-.2944-.471-.1767-.9126-.4711-1.2659-.8243-.3827-.3533-.7065-.7949-.9126-1.266-.2355-.5299-.3827-1.0892-.4122-1.6486h10.0096c0-.0589.0074-.1104.0147-.1619.0074-.0515.0148-.1031.0148-.1619v-.4711c.0294-.79486-.1178-1.58974-.4122-2.32574-.8538-2.32576-3.1206-3.85664-5.5936-3.8272-2.5024-.02944-4.7987 1.472-5.7114 3.8272-.2944.76544-.4416 1.58976-.4416 2.41404 0 .8244.1472 1.6487.4416 2.4141.2944.736.7066 1.4131 1.266 2.0019.5593.5888 1.207 1.0304 1.943 1.3543zm6.2427-8.15529c.2355.50048.3827 1.0304.4122 1.58976h-8.1844c.0589-.52992.1767-1.05984.4122-1.56032.2061-.47104.5005-.8832.8832-1.23648s.7949-.64768 1.2659-.82432c1.472-.5888 3.1207-.26496 4.2983.79488.3827.35328.6771.76544.9126 1.23648z" fill-rule="evenodd"/><path d="m71.3021 15.5733c-.1178.0589-.2944.1472-.471.2355-.2061.0884-.4416.1767-.6772.265-.2649.0883-.5593.1472-.8243.2061-.2944.0589-.6182.0883-.9421.0883-.6771.0294-1.3542-.2061-1.9136-.6182-.5299-.4122-.8243-1.0304-.8243-1.8842v-8.15487h-1.6486v-1.58976h1.6486v-4.0332794h2.0314v4.0332794h2.7085v1.58976h-2.7085v7.47777c0 .3827.1472.736.4416.9715.2649.2061.5888.2944.9126.2944.3827 0 .736-.0589 1.0893-.2061.2355-.0883.471-.1766.6771-.3238z"/><path d="m78.984 5.88709c-.942 0-1.8841.2944-2.679.79488-.7654.47104-1.3542 1.20704-1.6486 2.0608v7.44833h-2.0314v-12.07041h1.8842v2.7968c.3827-.79488.942-1.472 1.6486-2.03136.6182-.50048 1.3837-.79488 2.1491-.8832h.3827c.0884 0 .1767 0 .265.02944z"/><path d="m82.3714 18.4878c.2061.0295.3827.0589.5888.0589s.3533.0294.471.0294c.2061 0 .4416-.0588.6183-.1472.1766-.1177.3238-.2944.4416-.5004.1472-.2356.4416-1.0304.7065-1.737l-5.0931-12.07041h2.0902l4.1216 10.24511 3.7389-10.24511h1.9431l-5.5053 14.24901c-.2355.5593-.5888 1.0598-1.0599 1.4131-.5888.4416-1.3248.6477-2.0608.6182-.1472 0-.2944 0-.4416-.0294-.1766-.0295-.3532-.0589-.5299-.0883z"/></g></svg>