<svg width="108" height="24" viewBox="0 0 108 24" fill="none" xmlns="http://www.w3.org/2000/svg">
<path d="M8.77366 16.0312L3.16602 23.8407H7.32874L10.9754 18.9899L8.77366 16.0312Z" fill="white"/>
<path d="M22.7744 20.4696L16.3066 11.9033L22.74 3.37146L20.2286 0.0344027L13.9673 8.77269L7.39635 0H3.19922L20.263 23.8067L22.7744 20.4696Z" fill="white"/>
<path d="M15.3428 0L11.7305 4.78198L13.9666 7.74061L19.5399 0H15.3428Z" fill="#E6F0FD"/>
<path d="M15.378 23.8428H19.5751L2.47699 0.0361328L0 3.37319L6.3989 11.9051L0 20.4025L2.44259 23.8084L8.73829 15.0013L15.378 23.8428Z" fill="#E6F0FD"/>
<path fill-rule="evenodd" clip-rule="evenodd" d="M23.4285 16.9946C24.7702 18.4395 26.628 19.2308 28.5889 19.1964C29.5866 19.1964 30.5843 18.9899 31.4787 18.6115C33.1645 17.8547 34.5062 16.4441 35.1942 14.6896C35.5383 13.7951 35.7103 12.8663 35.7103 11.903C35.7103 10.9397 35.5383 9.97643 35.1942 9.08196C34.8846 8.2219 34.3686 7.43063 33.7493 6.74258C32.4076 5.29767 30.5499 4.50641 28.5889 4.54081C27.5912 4.50641 26.5936 4.71282 25.6991 5.12565C24.8734 5.50408 24.0822 6.02012 23.4629 6.70818C22.8437 7.39623 22.362 8.18749 22.018 9.04756C21.674 9.94203 21.502 10.9053 21.502 11.8686C21.502 12.8319 21.674 13.7607 22.018 14.6552C22.3276 15.5153 22.8093 16.3065 23.4285 16.9946ZM24.2893 13.9675C24.0141 13.3138 23.9108 12.5914 23.9108 11.9033C23.9108 11.2153 24.0485 10.5272 24.2893 9.80475C24.5301 9.1855 24.8397 8.60065 25.287 8.11901C25.6998 7.63738 26.2158 7.25895 26.7663 6.98373C27.3167 6.7085 27.9704 6.57089 28.5896 6.57089C29.2089 6.57089 29.8281 6.7085 30.413 6.98373C30.9978 7.25895 31.5138 7.63738 31.9267 8.11901C32.3395 8.63505 32.6835 9.1855 32.9244 9.80475C33.1996 10.4584 33.3028 11.1465 33.3028 11.8345C33.3028 12.5226 33.1652 13.245 32.9244 13.8987C32.7179 14.5179 32.3739 15.1028 31.9267 15.5844C31.4794 16.066 30.9978 16.4445 30.413 16.7197C29.2433 17.2701 27.936 17.2701 26.7663 16.7197C26.2158 16.4445 25.6998 16.066 25.287 15.6188C24.8397 15.1372 24.5301 14.5867 24.2893 13.9675Z" fill="white"/>
<path d="M58.4496 18.92H56.0758V11.0074C56.0758 9.52806 55.835 8.42717 55.3533 7.73912C54.8717 7.05107 54.0804 6.63823 53.2204 6.67264C52.2571 6.67264 51.3282 7.05107 50.6058 7.70472C49.8145 8.42717 49.2641 9.35605 48.9544 10.3881V18.92H46.5806V11.0074C46.5806 9.49366 46.3398 8.39277 45.8926 7.70472C45.4109 7.01666 44.6197 6.63823 43.794 6.67264C42.8307 6.67264 41.9019 7.05107 41.2138 7.67031C40.3882 8.39277 39.8033 9.32164 39.5281 10.3881V18.92H37.1543V4.81489H39.3217V7.84233C39.8377 6.84465 40.629 6.01898 41.5578 5.43414C42.4867 4.84929 43.5532 4.57407 44.6541 4.57407C45.6862 4.50527 46.6838 4.84929 47.4751 5.53735C48.1632 6.191 48.6448 7.05107 48.748 8.01434C50.0209 5.70936 51.8099 4.57407 54.1148 4.57407C54.8373 4.53967 55.5253 4.71168 56.1446 5.02131C56.695 5.29653 57.1423 5.74376 57.4519 6.2598C57.7959 6.84465 58.0367 7.4639 58.1399 8.15195C58.2776 8.94321 58.3464 9.70007 58.3464 10.4913L58.4496 18.92Z" fill="white"/>
<path fill-rule="evenodd" clip-rule="evenodd" d="M64.264 18.611C65.1929 19.0239 66.1905 19.1959 67.1882 19.1959C67.8763 19.1959 68.5643 19.0927 69.1836 18.9894C69.8028 18.8174 70.4221 18.5766 70.9725 18.2326C71.4886 17.923 71.9702 17.5445 72.383 17.0973C72.7959 16.6501 73.1055 16.1684 73.3463 15.6524L71.2821 15.0675C71.1445 15.4116 70.9381 15.7556 70.6629 16.0308C70.3877 16.306 70.0436 16.5469 69.6996 16.7533C69.3212 16.9597 68.9427 17.1317 68.5299 17.2349C68.1171 17.3381 67.6698 17.4069 67.257 17.4069C66.6378 17.4069 66.0529 17.3037 65.5025 17.0629C64.952 16.8565 64.436 16.5125 64.0232 16.0996C63.5759 15.6868 63.1975 15.1707 62.9567 14.6203C62.6815 14.0011 62.5094 13.3474 62.475 12.6938H74.172C74.172 12.6249 74.1806 12.5647 74.1892 12.5045C74.1978 12.4443 74.2064 12.3841 74.2064 12.3153V11.7649C74.2408 10.836 74.0688 9.90713 73.7247 9.04707C72.727 6.32925 70.078 4.54031 67.1882 4.57472C64.264 4.54031 61.5806 6.29485 60.5141 9.04707C60.1701 9.94154 59.998 10.9048 59.998 11.8681C59.998 12.8314 60.1701 13.7946 60.5141 14.6891C60.8581 15.5492 61.3398 16.3404 61.9934 17.0285C62.6471 17.7165 63.4039 18.2326 64.264 18.611ZM71.557 9.08116C71.8322 9.666 72.0043 10.2853 72.0387 10.9389H62.4747C62.5435 10.3197 62.6811 9.70041 62.9563 9.11556C63.1972 8.56512 63.5412 8.08348 63.9884 7.67065C64.4357 7.25782 64.9173 6.91379 65.4677 6.70737C67.1879 6.01932 69.1144 6.39775 70.4905 7.63625C70.9378 8.04908 71.2818 8.53071 71.557 9.08116Z" fill="white"/>
<path d="M83.3248 18.1984C83.1872 18.2672 82.9808 18.3704 82.7744 18.4736C82.5336 18.5768 82.2584 18.68 81.9831 18.7832C81.6735 18.8864 81.3295 18.9552 81.0199 19.024C80.6758 19.0928 80.2974 19.1272 79.919 19.1272C79.1277 19.1616 78.3364 18.8864 77.6828 18.4048C77.0635 17.9231 76.7195 17.2007 76.7195 16.203V6.67346H74.793V4.81571H76.7195V0.102539H79.0933V4.81571H82.2584V6.67346H79.0933V15.4117C79.0933 15.859 79.2653 16.2718 79.6093 16.547C79.919 16.7878 80.2974 16.8911 80.6758 16.8911C81.1231 16.8911 81.5359 16.8223 81.9487 16.6502C82.224 16.547 82.4992 16.4438 82.74 16.2718L83.3248 18.1984Z" fill="white"/>
<path d="M92.3021 6.87951C91.2012 6.87951 90.1003 7.22353 89.1714 7.80838C88.277 8.35882 87.5889 9.21889 87.2449 10.2166V18.9205H84.8711V4.81535H87.0729V8.0836C87.5201 7.15473 88.1738 6.36347 88.9994 5.70982C89.7219 5.12497 90.6163 4.78094 91.5108 4.67773H91.9581C92.0613 4.67773 92.1645 4.67773 92.2677 4.71214L92.3021 6.87951Z" fill="white"/>
<path d="M96.2603 21.6039C96.5012 21.6383 96.7076 21.6728 96.9484 21.6728C97.1892 21.6728 97.3612 21.7072 97.4988 21.7072C97.7397 21.7072 98.0149 21.6383 98.2213 21.5351C98.4277 21.3975 98.5997 21.1911 98.7373 20.9503C98.9093 20.6751 99.2534 19.7462 99.563 18.9205L93.6113 4.81543H96.0539L100.87 16.7876L105.239 4.81543H107.51L101.077 21.4663C100.801 22.12 100.389 22.7048 99.8382 23.1177C99.1502 23.6337 98.2901 23.8745 97.43 23.8401C97.258 23.8401 97.086 23.8401 96.914 23.8057C96.7076 23.7713 96.5012 23.7369 96.2947 23.7025L96.2603 21.6039Z" fill="white"/>
</svg>
